<svg width="96" height="96" viewBox="0 0 96 96" fill="none" xmlns="http://www.w3.org/2000/svg" role="img" aria-labelledby="title desc">
  <title id="title">Basketball</title>
  <desc id="desc">Orange basketball icon</desc>
  <circle cx="48" cy="48" r="39" fill="#F97316"/>
  <circle cx="48" cy="48" r="39" stroke="#FDBA74" stroke-width="3"/>
  <path d="M48 9C38.9 18.6 34 31.7 34 48C34 64.3 38.9 77.4 48 87" stroke="#7C2D12" stroke-width="4" stroke-linecap="round"/>
  <path d="M48 9C57.1 18.6 62 31.7 62 48C62 64.3 57.1 77.4 48 87" stroke="#7C2D12" stroke-width="4" stroke-linecap="round"/>
  <path d="M12 34C23 40.4 35.1 43.6 48 43.6C60.9 43.6 73 40.4 84 34" stroke="#7C2D12" stroke-width="4" stroke-linecap="round"/>
  <path d="M12 62C23 55.6 35.1 52.4 48 52.4C60.9 52.4 73 55.6 84 62" stroke="#7C2D12" stroke-width="4" stroke-linecap="round"/>
  <path d="M9 48H87" stroke="#7C2D12" stroke-width="4" stroke-linecap="round"/>
</svg>
